<mxfile host="app.diagrams.net" modified="2020-11-17T00:05:53.317Z" agent="5.0 (Macintosh; Intel Mac OS X 10_15_7) AppleWebKit/537.36 (KHTML, like Gecko) Chrome/86.0.4240.193 Safari/537.36" etag="Bb-YXoMrGwJ30Izbu7Hr" version="13.8.8" type="github">
  <diagram id="QU7qdiWsfU6a7edic78I" name="Page-1">
    <mxGraphModel dx="1258" dy="786" grid="1" gridSize="10" guides="1" tooltips="1" connect="1" arrows="1" fold="1" page="1" pageScale="1" pageWidth="827" pageHeight="1169" math="0" shadow="0">
      <root>
        <mxCell id="0" />
        <mxCell id="1" parent="0" />
        <mxCell id="dER7OQD3nxIQlYEfe-vo-1" value="TDW" style="rounded=0;whiteSpace=wrap;html=1;fillColor=#f5f5f5;strokeColor=#666666;fontColor=#333333;" vertex="1" parent="1">
          <mxGeometry x="210" y="200" width="90" height="40" as="geometry" />
        </mxCell>
        <mxCell id="dER7OQD3nxIQlYEfe-vo-2" value="HIVE" style="rounded=0;whiteSpace=wrap;html=1;fillColor=#f5f5f5;strokeColor=#666666;fontColor=#333333;" vertex="1" parent="1">
          <mxGeometry x="210" y="260" width="90" height="40" as="geometry" />
        </mxCell>
        <mxCell id="dER7OQD3nxIQlYEfe-vo-3" value="&lt;b&gt;&lt;font style=&quot;font-size: 14px&quot;&gt;.&lt;br&gt;.&lt;br&gt;.&lt;br&gt;.&lt;/font&gt;&lt;/b&gt;" style="text;html=1;strokeColor=none;fillColor=none;align=center;verticalAlign=middle;whiteSpace=wrap;rounded=0;" vertex="1" parent="1">
          <mxGeometry x="235" y="330" width="40" height="20" as="geometry" />
        </mxCell>
        <mxCell id="dER7OQD3nxIQlYEfe-vo-4" value="" style="shape=curlyBracket;whiteSpace=wrap;html=1;rounded=1;rotation=-180;" vertex="1" parent="1">
          <mxGeometry x="330" y="200" width="20" height="170" as="geometry" />
        </mxCell>
        <mxCell id="dER7OQD3nxIQlYEfe-vo-5" value="" style="shape=flexArrow;endArrow=classic;html=1;" edge="1" parent="1">
          <mxGeometry width="50" height="50" relative="1" as="geometry">
            <mxPoint x="360" y="284.5" as="sourcePoint" />
            <mxPoint x="430" y="284.5" as="targetPoint" />
          </mxGeometry>
        </mxCell>
        <mxCell id="dER7OQD3nxIQlYEfe-vo-6" value="SQL" style="rounded=0;whiteSpace=wrap;html=1;fillColor=#dae8fc;strokeColor=#6c8ebf;" vertex="1" parent="1">
          <mxGeometry x="450" y="267.5" width="80" height="35" as="geometry" />
        </mxCell>
        <mxCell id="dER7OQD3nxIQlYEfe-vo-7" value="" style="shape=flexArrow;endArrow=classic;html=1;" edge="1" parent="1">
          <mxGeometry width="50" height="50" relative="1" as="geometry">
            <mxPoint x="550" y="284.5" as="sourcePoint" />
            <mxPoint x="620" y="284.5" as="targetPoint" />
          </mxGeometry>
        </mxCell>
        <mxCell id="dER7OQD3nxIQlYEfe-vo-8" value="Schedule&lt;br&gt;Job" style="rounded=0;whiteSpace=wrap;html=1;fillColor=#d5e8d4;strokeColor=#82b366;" vertex="1" parent="1">
          <mxGeometry x="840" y="267.5" width="80" height="35" as="geometry" />
        </mxCell>
        <mxCell id="dER7OQD3nxIQlYEfe-vo-9" value="" style="shape=flexArrow;endArrow=classic;html=1;" edge="1" parent="1">
          <mxGeometry width="50" height="50" relative="1" as="geometry">
            <mxPoint x="940" y="284.5" as="sourcePoint" />
            <mxPoint x="1010" y="284.5" as="targetPoint" />
          </mxGeometry>
        </mxCell>
        <mxCell id="dER7OQD3nxIQlYEfe-vo-10" value="HBase" style="rounded=0;whiteSpace=wrap;html=1;fillColor=#ffe6cc;strokeColor=#d79b00;" vertex="1" parent="1">
          <mxGeometry x="1027" y="200" width="90" height="40" as="geometry" />
        </mxCell>
        <mxCell id="dER7OQD3nxIQlYEfe-vo-11" value="Redis" style="rounded=0;whiteSpace=wrap;html=1;fillColor=#ffe6cc;strokeColor=#d79b00;" vertex="1" parent="1">
          <mxGeometry x="1027" y="260" width="90" height="40" as="geometry" />
        </mxCell>
        <mxCell id="dER7OQD3nxIQlYEfe-vo-12" value="&lt;b&gt;&lt;font style=&quot;font-size: 14px&quot;&gt;.&lt;br&gt;.&lt;br&gt;.&lt;br&gt;.&lt;/font&gt;&lt;/b&gt;" style="text;html=1;strokeColor=none;fillColor=none;align=center;verticalAlign=middle;whiteSpace=wrap;rounded=0;" vertex="1" parent="1">
          <mxGeometry x="1052" y="330" width="40" height="20" as="geometry" />
        </mxCell>
        <mxCell id="dER7OQD3nxIQlYEfe-vo-13" value="" style="shape=flexArrow;endArrow=classic;html=1;" edge="1" parent="1">
          <mxGeometry width="50" height="50" relative="1" as="geometry">
            <mxPoint x="1140" y="284.5" as="sourcePoint" />
            <mxPoint x="1210" y="284.5" as="targetPoint" />
          </mxGeometry>
        </mxCell>
        <mxCell id="dER7OQD3nxIQlYEfe-vo-14" value="Serving" style="rounded=0;whiteSpace=wrap;html=1;fillColor=#b0e3e6;strokeColor=#0e8088;" vertex="1" parent="1">
          <mxGeometry x="1240" y="233.75" width="90" height="102.5" as="geometry" />
        </mxCell>
        <mxCell id="dER7OQD3nxIQlYEfe-vo-15" value="数据源" style="text;html=1;strokeColor=none;fillColor=none;align=center;verticalAlign=middle;whiteSpace=wrap;rounded=0;fontStyle=1" vertex="1" parent="1">
          <mxGeometry x="235" y="130" width="40" height="20" as="geometry" />
        </mxCell>
        <mxCell id="dER7OQD3nxIQlYEfe-vo-16" value="逻辑&lt;br&gt;表述" style="text;html=1;strokeColor=none;fillColor=none;align=center;verticalAlign=middle;whiteSpace=wrap;rounded=0;fontStyle=1" vertex="1" parent="1">
          <mxGeometry x="470" y="130" width="40" height="20" as="geometry" />
        </mxCell>
        <mxCell id="dER7OQD3nxIQlYEfe-vo-17" value="任务&lt;br&gt;调度" style="text;html=1;strokeColor=none;fillColor=none;align=center;verticalAlign=middle;whiteSpace=wrap;rounded=0;fontStyle=1" vertex="1" parent="1">
          <mxGeometry x="860" y="130" width="40" height="20" as="geometry" />
        </mxCell>
        <mxCell id="dER7OQD3nxIQlYEfe-vo-18" value="存储" style="text;html=1;strokeColor=none;fillColor=none;align=center;verticalAlign=middle;whiteSpace=wrap;rounded=0;fontStyle=1" vertex="1" parent="1">
          <mxGeometry x="1040" y="130" width="40" height="20" as="geometry" />
        </mxCell>
        <mxCell id="dER7OQD3nxIQlYEfe-vo-19" value="服务" style="text;html=1;strokeColor=none;fillColor=none;align=center;verticalAlign=middle;whiteSpace=wrap;rounded=0;fontStyle=1" vertex="1" parent="1">
          <mxGeometry x="1260" y="130" width="40" height="20" as="geometry" />
        </mxCell>
        <mxCell id="dER7OQD3nxIQlYEfe-vo-20" value="QC" style="rounded=0;whiteSpace=wrap;html=1;fillColor=#dae8fc;strokeColor=#6c8ebf;" vertex="1" parent="1">
          <mxGeometry x="640" y="267.5" width="80" height="35" as="geometry" />
        </mxCell>
        <mxCell id="dER7OQD3nxIQlYEfe-vo-21" value="" style="shape=flexArrow;endArrow=classic;html=1;" edge="1" parent="1">
          <mxGeometry width="50" height="50" relative="1" as="geometry">
            <mxPoint x="750" y="284.5" as="sourcePoint" />
            <mxPoint x="820" y="284.5" as="targetPoint" />
          </mxGeometry>
        </mxCell>
        <mxCell id="dER7OQD3nxIQlYEfe-vo-22" value="数据&lt;br&gt;质量" style="text;html=1;strokeColor=none;fillColor=none;align=center;verticalAlign=middle;whiteSpace=wrap;rounded=0;fontStyle=1" vertex="1" parent="1">
          <mxGeometry x="660" y="130" width="40" height="20" as="geometry" />
        </mxCell>
      </root>
    </mxGraphModel>
  </diagram>
</mxfile>
